<?xml version="1.0" standalone="no"?>
<!DOCTYPE svg PUBLIC "-//W3C//DTD SVG 20010904//EN"
 "http://www.w3.org/TR/2001/REC-SVG-20010904/DTD/svg10.dtd">
<svg version="1.0" xmlns="http://www.w3.org/2000/svg"
 width="113.000000pt" height="113.000000pt" viewBox="0 0 113.000000 113.000000"
 preserveAspectRatio="xMidYMid meet">
<metadata>
Created by potrace 1.14, written by Peter Selinger 2001-2017
</metadata>
<g transform="translate(0.000000,113.000000) scale(0.100000,-0.100000)"
fill="#000000" stroke="none">
<path d="M0 565 l0 -515 565 0 565 0 0 515 0 515 -565 0 -565 0 0 -515z m561
398 c18 -20 190 -180 229 -212 14 -11 20 -20 13 -21 -6 0 -36 23 -67 51 -30
28 -59 48 -63 46 -5 -3 -31 -48 -58 -101 -42 -81 -48 -99 -40 -122 12 -34 36
-45 28 -13 -6 20 -3 21 21 15 25 -6 26 -5 16 13 -5 11 -15 23 -20 26 -6 3 -10
11 -10 17 0 6 7 5 17 -3 15 -13 16 -12 11 9 -4 12 -2 22 3 22 5 0 9 -10 9 -22
0 -20 1 -21 20 -3 11 10 20 13 20 8 0 -6 -7 -16 -15 -23 -8 -7 -15 -22 -15
-33 0 -16 3 -18 12 -9 17 17 38 15 38 -4 0 -30 20 -2 21 29 1 18 3 24 6 14 5
-18 6 -18 24 -1 21 19 24 13 9 -16 -8 -15 -6 -17 13 -13 15 4 19 2 12 -5 -5
-6 -21 -12 -34 -14 -14 -1 -26 -9 -29 -16 -2 -7 2 -10 11 -6 21 8 30 -12 16
-38 -9 -17 -9 -24 5 -33 21 -16 20 -32 -1 -38 -16 -4 -15 -6 4 -12 22 -7 40
-35 23 -35 -5 0 -10 -10 -12 -22 -4 -20 -6 -18 -14 11 -5 19 -15 36 -22 39 -7
2 -10 -2 -6 -12 6 -15 -4 -21 -33 -17 -19 3 -16 -10 9 -36 21 -22 13 -34 -9
-12 -7 7 -9 3 -6 -14 3 -14 -1 -28 -8 -32 -8 -5 -10 -4 -5 3 4 7 2 20 -3 29
-6 10 -11 12 -11 6 0 -7 -5 -13 -10 -13 -6 0 -4 14 5 31 17 32 12 55 -6 29 -8
-13 -11 -13 -23 3 -20 26 -26 21 -27 -20 -1 -21 -3 -30 -6 -20 -6 21 -19 22
-27 2 -3 -8 -11 -15 -17 -15 -7 0 -6 8 4 24 15 23 15 24 -5 18 -14 -3 -19 -1
-14 6 4 7 15 12 25 12 10 0 24 6 30 14 9 11 8 14 -6 12 -13 -1 -18 6 -17 22 1
27 -8 28 -31 2 -21 -23 -44 -28 -25 -5 11 13 8 15 -14 15 -14 0 -26 -4 -26
-10 0 -5 -5 -10 -10 -10 -6 0 -5 8 2 20 7 11 18 18 24 16 6 -2 17 0 25 5 12 7
12 9 -1 10 -8 1 -18 1 -22 0 -4 0 -5 6 -1 15 3 8 -5 26 -18 41 l-24 26 42 -23
c23 -13 40 -27 37 -32 -3 -4 -11 -6 -17 -2 -7 3 -1 -4 13 -15 27 -23 63 -30
42 -9 -17 17 -15 38 4 38 8 0 12 5 9 10 -4 6 -19 9 -34 7 -25 -4 -28 -2 -28
24 0 32 6 35 26 17 11 -11 13 -10 8 2 -2 8 21 65 53 126 l58 111 -21 18 c-12
10 -41 36 -64 58 l-42 40 -33 -28 c-18 -15 -78 -70 -133 -121 -54 -52 -104
-94 -110 -94 -5 0 10 19 35 43 120 112 236 217 240 217 3 0 13 -8 21 -17z
m-71 -150 c0 -13 -48 -68 -54 -63 -7 7 33 70 45 70 5 0 9 -3 9 -7z m75 -132
c-9 -9 -57 -15 -80 -11 -18 3 29 19 60 19 18 1 25 -3 20 -8z m-169 -186 c3
-20 4 -39 0 -42 -9 -10 -13 -1 -19 40 -6 47 10 49 19 2z m44 -99 c0 -2 -8 -10
-17 -17 -16 -13 -17 -12 -4 4 13 16 21 21 21 13z m-280 -131 c0 -8 -4 -17 -10
-20 -6 -4 -10 5 -10 20 0 15 4 24 10 20 6 -3 10 -12 10 -20z m175 -24 c3 -31
1 -41 -10 -41 -11 0 -15 11 -15 38 0 36 8 57 17 48 2 -2 6 -22 8 -45z m505 20
c13 -26 13 -31 -5 -31 -9 0 -13 7 -9 18 2 9 -1 7 -7 -5 -19 -36 -40 -30 -26 7
13 34 32 39 47 11z m-280 -12 c0 -5 -6 -9 -13 -9 -8 0 -14 6 -14 14 0 8 6 12
14 9 7 -3 13 -9 13 -14z m-310 -18 c0 -26 -19 -56 -21 -34 0 4 -2 17 -4 27 -4
22 2 36 16 36 5 0 9 -13 9 -29z m171 16 c-1 -4 -1 -16 -1 -27 0 -11 -4 -20
-10 -20 -5 0 -10 14 -10 31 0 17 5 29 11 27 6 -2 10 -7 10 -11z m-221 -23 c0
-8 -4 -14 -10 -14 -5 0 -10 2 -10 4 0 2 -3 12 -6 20 -5 12 -2 15 10 10 9 -3
16 -12 16 -20z m90 11 c0 -8 -4 -15 -8 -15 -5 0 -9 7 -9 15 0 8 4 15 9 15 4 0
8 -7 8 -15z m190 -16 c0 -10 -6 -19 -13 -19 -22 0 -27 11 -16 32 12 22 29 15
29 -13z m70 -9 c0 -5 -7 -10 -16 -10 -8 0 -12 5 -9 10 3 6 10 10 16 10 5 0 9
-4 9 -10z m-80 -71 c0 -11 -5 -17 -10 -14 -6 4 -7 11 -4 17 4 6 -2 6 -15 -1
-12 -7 -21 -8 -21 -2 0 5 6 12 13 14 25 11 37 6 37 -14z m247 14 c-4 -3 -1
-13 6 -21 11 -13 9 -14 -10 -2 -22 14 -22 30 -1 30 6 0 8 -3 5 -7z m113 -4 c0
-10 -40 -23 -47 -16 -3 3 -3 10 0 14 7 11 47 12 47 2z m104 -16 c4 -9 2 -11
-7 -6 -19 12 -70 13 -84 1 -17 -14 -17 -3 1 14 17 18 83 11 90 -9z m56 12 c0
-17 -19 -19 -40 -4 -13 9 -12 10 3 5 9 -3 17 -1 17 4 0 6 5 10 10 10 6 0 10
-7 10 -15z m-780 -7 c20 1 22 0 9 -8 -16 -9 -89 4 -89 17 0 3 12 2 28 -2 15
-4 38 -7 52 -7z m200 8 c0 -2 -7 -7 -16 -10 -8 -3 -12 -2 -9 4 6 10 25 14 25
6z m120 -17 c0 -4 -7 -6 -15 -3 -8 4 -15 10 -15 15 0 4 7 6 15 3 8 -4 15 -10
15 -15z m50 11 c0 -5 -10 -10 -22 -9 -22 0 -22 1 -3 9 11 5 21 9 23 9 1 1 2
-3 2 -9z m55 -8 c-3 -3 -11 0 -18 7 -9 10 -8 11 6 5 10 -3 15 -9 12 -12z m135
8 c0 -5 -4 -10 -9 -10 -6 0 -13 5 -16 10 -3 6 1 10 9 10 9 0 16 -4 16 -10z"/>
<path d="M682 593 c-15 -26 -15 -53 -2 -53 11 0 24 43 18 62 -3 8 -9 5 -16 -9z"/>
<path d="M617 576 c3 -12 14 -28 25 -35 18 -11 20 -11 14 4 -3 9 -6 20 -6 23
0 4 -8 12 -18 19 -17 10 -18 8 -15 -11z"/>
<path d="M705 544 c-25 -26 -9 -29 27 -5 29 18 30 21 11 21 -12 0 -29 -7 -38
-16z"/>
<path d="M580 530 c0 -11 2 -11 38 -15 25 -3 30 10 6 19 -24 9 -44 7 -44 -4z"/>
<path d="M700 500 c0 -12 48 -25 58 -16 8 9 -18 26 -40 26 -10 0 -18 -4 -18
-10z"/>
<path d="M599 480 c-23 -19 -23 -19 -3 -20 11 0 29 9 39 20 15 17 16 20 3 20
-9 0 -26 -9 -39 -20z"/>
<path d="M680 477 c0 -8 9 -24 20 -37 20 -23 20 -23 20 -2 0 11 -7 28 -16 36
-19 20 -24 20 -24 3z"/>
<path d="M647 473 c-4 -3 -7 -20 -7 -37 0 -28 1 -29 15 -10 23 31 16 72 -8 47z"/>
</g>
</svg>
